<svg xmlns="http://www.w3.org/2000/svg" viewBox="0 0 149.44 37.34"><defs><style>.cls-1{fill:#3c89c5;}.cls-2{fill:none;}</style></defs><title>ic_small_big_logo</title><g id="Layer_2" data-name="Layer 2"><g id="Layer_1-2" data-name="Layer 1"><path class="cls-1" d="M70,32.8h-8.1a2.76,2.76,0,0,1-2.76-2.47l-.54-5.71-.8-8.87-.49-5.34A1.11,1.11,0,0,1,58.39,9.2H73.44a1.11,1.11,0,0,1,1.11,1.22l-.49,5.34-.8,8.86-.53,5.7A2.76,2.76,0,0,1,70,32.8ZM59.61,11.43,60,15.56l.8,8.86.53,5.7a.53.53,0,0,0,.54.46H70a.53.53,0,0,0,.54-.47L71,24.42l.8-8.86.38-4.13Z"/><path class="cls-1" d="M64.15,20.33v-.27a7.33,7.33,0,0,1,3.54,0v.27a1.79,1.79,0,0,1-3.54,0Zm4.63-3.59a1,1,0,0,1,.08-.36.39.39,0,0,1,.73,0,1,1,0,0,1,.08.36v.35a.44.44,0,0,0,.88,0v-.35a1.86,1.86,0,0,0-.14-.7A1.27,1.27,0,0,0,68,16a1.86,1.86,0,0,0-.14.7v.35a.44.44,0,0,0,.88,0Zm-6.61,0a1,1,0,0,1,.08-.36.39.39,0,0,1,.73,0,1,1,0,0,1,.08.36v.35a.44.44,0,0,0,.88,0v-.35a1.86,1.86,0,0,0-.14-.7,1.27,1.27,0,0,0-2.36,0,1.86,1.86,0,0,0-.14.7v.35a.44.44,0,0,0,.88,0Z"/><path class="cls-1" d="M65.92,22.06a1.81,1.81,0,0,1-2-1.74v-.45l.18,0a7.57,7.57,0,0,1,3.65,0l.18,0v.45A1.81,1.81,0,0,1,65.92,22.06Zm-1.53-1.81v.08c0,.13.05,1.27,1.53,1.27s1.53-1.21,1.53-1.27v-.07a7,7,0,0,0-3.06,0Zm5.72-2.49a.68.68,0,0,1-.68-.68v-.35a.8.8,0,0,0-.06-.27c0-.11-.07-.11-.15-.11s-.1,0-.15.11a.8.8,0,0,0-.06.27v.35a.68.68,0,0,1-1.36,0v-.35a2.1,2.1,0,0,1,.16-.79,1.51,1.51,0,0,1,2.8,0,2.1,2.1,0,0,1,.16.79v.35A.68.68,0,0,1,70.11,17.76Zm-.88-1.89a.59.59,0,0,1,.58.4,1.25,1.25,0,0,1,.09.45v.35a.21.21,0,0,0,.41,0v-.35a1.62,1.62,0,0,0-.13-.61,1,1,0,0,0-1.93,0,1.62,1.62,0,0,0-.13.61v.35a.21.21,0,0,0,.41,0v-.35a1.26,1.26,0,0,1,.09-.45A.59.59,0,0,1,69.22,15.88ZM63.5,17.76a.68.68,0,0,1-.68-.68v-.35a.8.8,0,0,0-.06-.27c0-.11-.07-.11-.15-.11s-.1,0-.15.11a.8.8,0,0,0-.06.27v.35a.68.68,0,0,1-1.36,0v-.35a2.1,2.1,0,0,1,.16-.79,1.51,1.51,0,0,1,2.8,0,2.1,2.1,0,0,1,.16.79v.35A.68.68,0,0,1,63.5,17.76Zm-.88-1.89a.59.59,0,0,1,.58.4,1.25,1.25,0,0,1,.09.45v.35a.21.21,0,0,0,.41,0v-.35a1.62,1.62,0,0,0-.13-.61,1,1,0,0,0-1.93,0,1.62,1.62,0,0,0-.13.61v.35a.21.21,0,0,0,.41,0v-.35a1.25,1.25,0,0,1,.09-.45A.59.59,0,0,1,62.61,15.88Z"/><path class="cls-1" d="M26.59,27a7.29,7.29,0,0,1-2.74-2.81,8.56,8.56,0,0,1-1.05-4.32,8.56,8.56,0,0,1,1.05-4.32,7.29,7.29,0,0,1,2.74-2.81,7.15,7.15,0,0,1,3.58-1,7,7,0,0,1,5.22,2.32V6.6a1.34,1.34,0,0,1,.41-1,1.38,1.38,0,0,1,1-.4,1.3,1.3,0,0,1,1,.41,1.38,1.38,0,0,1,.4,1V26.39a1.35,1.35,0,0,1-1.37,1.37,1.38,1.38,0,0,1-1-.4,1.3,1.3,0,0,1-.41-1V25.6a7,7,0,0,1-5.22,2.32A7.15,7.15,0,0,1,26.59,27Zm6.62-2.26A7.52,7.52,0,0,0,35.39,23v-6.4A7.54,7.54,0,0,0,33.21,15a5.76,5.76,0,0,0-2.64-.63,4.79,4.79,0,0,0-3.63,1.43,5.63,5.63,0,0,0-1.37,4.06,5.63,5.63,0,0,0,1.37,4.06,4.79,4.79,0,0,0,3.63,1.43A5.76,5.76,0,0,0,33.21,24.7Z"/><path class="cls-1" d="M43,25.8a8.13,8.13,0,0,1-2.09-6,9.94,9.94,0,0,1,.79-4,6.79,6.79,0,0,1,2.44-3,7,7,0,0,1,4.06-1.13,7.1,7.1,0,0,1,3.9,1.05,6.81,6.81,0,0,1,2.5,2.81,8.63,8.63,0,0,1,.85,3.83A1.33,1.33,0,0,1,54,20.81H43.7a5,5,0,0,0,1.59,3.32A5.46,5.46,0,0,0,49,25.33a9.15,9.15,0,0,0,2.24-.24,9.28,9.28,0,0,0,1.88-.7,1.21,1.21,0,0,1,.55-.12,1.23,1.23,0,0,1,.85.34,1.11,1.11,0,0,1,.37.85,1.32,1.32,0,0,1-.79,1.13,9.52,9.52,0,0,1-5.34,1.34A7.79,7.79,0,0,1,43,25.8Zm9.71-7.24a4.89,4.89,0,0,0-.78-2.5,4.2,4.2,0,0,0-1.69-1.48,4.65,4.65,0,0,0-4.09,0,4.1,4.1,0,0,0-1.68,1.48,5,5,0,0,0-.76,2.5Z"/><path class="cls-1" d="M80.51,26.94a7.51,7.51,0,0,1-3-2.81,8.11,8.11,0,0,1-1.11-4.3,8.11,8.11,0,0,1,1.11-4.3,7.51,7.51,0,0,1,3-2.81,8.6,8.6,0,0,1,4.06-1,8.46,8.46,0,0,1,2.79.41,10.55,10.55,0,0,1,2.18,1.05,1.21,1.21,0,0,1,.26,1.91,1.07,1.07,0,0,1-.81.38,1.39,1.39,0,0,1-.67-.18,11.66,11.66,0,0,0-1.72-.75,6,6,0,0,0-1.78-.23,5.53,5.53,0,0,0-4.12,1.51,5.41,5.41,0,0,0-1.49,4,5.41,5.41,0,0,0,1.49,4,5.53,5.53,0,0,0,4.12,1.51,6,6,0,0,0,1.78-.23,11.64,11.64,0,0,0,1.72-.75,1.39,1.39,0,0,1,.67-.18,1.07,1.07,0,0,1,.81.38,1.21,1.21,0,0,1-.26,1.91,10.56,10.56,0,0,1-2.18,1.05,8.45,8.45,0,0,1-2.79.41A8.59,8.59,0,0,1,80.51,26.94Z"/><path class="cls-1" d="M94.31,27.37a4.33,4.33,0,0,1-1.81-1.6,4.41,4.41,0,0,1-.67-2.42,4.27,4.27,0,0,1,1.78-3.6,8.61,8.61,0,0,1,5.23-1.34h3.69v-.24a3.71,3.71,0,0,0-1-2.9,4.56,4.56,0,0,0-3.1-.88,10.4,10.4,0,0,0-2.06.18,17.26,17.26,0,0,0-2,.55,1.7,1.7,0,0,1-.4.06,1.08,1.08,0,0,1-.79-.34,1.12,1.12,0,0,1-.34-.82,1.18,1.18,0,0,1,.79-1.16,13.42,13.42,0,0,1,5.28-1.1,6.89,6.89,0,0,1,3.55.85,5.38,5.38,0,0,1,2.14,2.21,6.43,6.43,0,0,1,.69,2.94v8.63a1.3,1.3,0,0,1-.41,1,1.38,1.38,0,0,1-1,.4,1.35,1.35,0,0,1-1.37-1.37V25.6a7.66,7.66,0,0,1-5.73,2.32A5.67,5.67,0,0,1,94.31,27.37Zm6.12-2.55a7.2,7.2,0,0,0,2.1-1.63V20.63H99.2q-4.61,0-4.61,2.41a2.26,2.26,0,0,0,.75,1.77,3.69,3.69,0,0,0,2.49.67A5.51,5.51,0,0,0,100.42,24.82Z"/><path class="cls-1" d="M111,27.37a1.32,1.32,0,0,1-.4-1v-12h-1.8a1.2,1.2,0,0,1-.84-2,1.17,1.17,0,0,1,.84-.34h1.8V10.29a6.11,6.11,0,0,1,.66-3,4.07,4.07,0,0,1,1.71-1.71A4.83,4.83,0,0,1,115.15,5a5.85,5.85,0,0,1,2.65.61,1.32,1.32,0,0,1,.5.44,1.09,1.09,0,0,1,.2.63,1.14,1.14,0,0,1-.34.81,1.06,1.06,0,0,1-.79.35,2.9,2.9,0,0,1-.7-.09l-.82-.09a2.67,2.67,0,0,0-1.88.58,2.81,2.81,0,0,0-.63,2.1v1.68h3.81a1.15,1.15,0,0,1,1.19,1.19,1.17,1.17,0,0,1-.34.84,1.13,1.13,0,0,1-.85.35h-3.81v12a1.3,1.3,0,0,1-.41,1,1.38,1.38,0,0,1-1,.4A1.33,1.33,0,0,1,111,27.37Z"/><path class="cls-1" d="M122.65,27.37a1.32,1.32,0,0,1-.4-1v-12h-1.8a1.2,1.2,0,0,1-1.19-1.19,1.13,1.13,0,0,1,.35-.85,1.17,1.17,0,0,1,.84-.34h1.8V10.29a6.11,6.11,0,0,1,.66-3,4.07,4.07,0,0,1,1.71-1.71A4.83,4.83,0,0,1,126.83,5a5.85,5.85,0,0,1,2.65.61,1.32,1.32,0,0,1,.5.44,1.09,1.09,0,0,1,.2.63,1.14,1.14,0,0,1-.34.81,1.06,1.06,0,0,1-.79.35,2.9,2.9,0,0,1-.7-.09l-.82-.09a2.67,2.67,0,0,0-1.88.58,2.81,2.81,0,0,0-.63,2.1v1.68h3.81A1.15,1.15,0,0,1,130,13.25a1.17,1.17,0,0,1-.34.84,1.13,1.13,0,0,1-.85.35H125v12a1.3,1.3,0,0,1-.41,1,1.38,1.38,0,0,1-1,.4A1.33,1.33,0,0,1,122.65,27.37Z"/><path class="cls-1" d="M132.56,25.8a8.13,8.13,0,0,1-2.09-6,9.94,9.94,0,0,1,.79-4,6.79,6.79,0,0,1,2.44-3,7,7,0,0,1,4.06-1.13,7.1,7.1,0,0,1,3.9,1.05,6.81,6.81,0,0,1,2.5,2.81,8.63,8.63,0,0,1,.85,3.83,1.33,1.33,0,0,1-1.4,1.37H133.28a5,5,0,0,0,1.59,3.32,5.46,5.46,0,0,0,3.75,1.19,9.15,9.15,0,0,0,2.24-.24,9.28,9.28,0,0,0,1.88-.7,1.21,1.21,0,0,1,.55-.12,1.23,1.23,0,0,1,.85.34,1.11,1.11,0,0,1,.37.85,1.32,1.32,0,0,1-.79,1.13,9.52,9.52,0,0,1-5.34,1.34A7.79,7.79,0,0,1,132.56,25.8Zm9.71-7.24a4.89,4.89,0,0,0-.78-2.5,4.2,4.2,0,0,0-1.69-1.48,4.65,4.65,0,0,0-4.09,0A4.1,4.1,0,0,0,134,16.06a5,5,0,0,0-.76,2.5Z"/><path class="cls-1" d="M74.38,6.64l-.07-.31a2,2,0,0,0-2-1.69H59.59a2.1,2.1,0,0,0-2.05,1.63l-.27,1.11,0,.1a2,2,0,0,0-1.33,1.87,2,2,0,0,0,2,2h16a2,2,0,0,0,2-2,2,2,0,0,0-.31-1.08.91.91,0,0,0-.81-.42H65.92a.37.37,0,0,1,0-.74H74C74.39,7.11,74.43,6.86,74.38,6.64Z"/><rect class="cls-2" width="149.44" height="37.34"/></g></g></svg>